<?xml version="1.0" encoding="UTF-8"?>
<svg version="1.1" viewBox="0 0 166.39 74.638" xml:space="preserve" xmlns="http://www.w3.org/2000/svg" xmlns:cc="http://creativecommons.org/ns#" xmlns:dc="http://purl.org/dc/elements/1.1/">
<defs>
	<clipPath id="g"><path d="m-428.46-417.41h841.89v595.28h-841.89z"/></clipPath>
	<clipPath id="f"><path d="m-402.61-444.52h841.89v595.28h-841.89z"/></clipPath>
	<clipPath id="e"><path d="m-418.41-459.11h841.89v595.28h-841.89z"/></clipPath>
	<clipPath id="d"><path d="m-444.11-433.89h841.89v595.28h-841.89z"/></clipPath>
	<clipPath id="c"><path d="m-408.43-433.96h841.89v595.28h-841.89z"/></clipPath>
	<clipPath id="b"><path d="m-347.94-454.69h841.89v595.28h-841.89z"/></clipPath>
	<clipPath id="a"><path d="m-358.62-461.07h841.89v595.28h-841.89z"/></clipPath>
	<clipPath id="p"><path d="m-393.97-421.91h841.89v595.28h-841.89z"/></clipPath>
	<clipPath id="o"><path d="m-382.61-461.07h841.89v595.28h-841.89z"/></clipPath>
	<clipPath id="n"><path d="m-487.72-425.75h841.89v595.28h-841.89z"/></clipPath>
	<clipPath id="m"><path d="m-460.46-429.95h841.89v595.28h-841.89z"/></clipPath>
	<clipPath id="l"><path d="m-469.47-434.3h841.89v595.28h-841.89z"/></clipPath>
	<clipPath id="k"><path d="m-404.69-407.23h841.89v595.28h-841.89z"/></clipPath>
	<clipPath id="j"><path d="m-364.54-394.51h841.89v595.28h-841.89z"/></clipPath>
	<clipPath id="i"><path d="m-349.39-407.43h841.89v595.28h-841.89z"/></clipPath>
	<clipPath id="h"><path d="m-467.75-407.43h841.89v595.28h-841.89z"/></clipPath>
</defs>
<g transform="translate(-328.77 -127.57)">
	<title>Youth Futures Foundation</title>
	<g transform="matrix(1,0,0,-1,382.61,134.21)" clip-path="url(#o)"><path d="m0 0v-12.05c0-0.638-0.124-1.248-0.37-1.813-0.246-0.566-0.588-1.064-1.018-1.481-0.431-0.419-0.936-0.756-1.503-1.002-1.129-0.49-2.491-0.489-3.643 1e-3 -0.578 0.246-1.083 0.582-1.5 1-0.418 0.417-0.754 0.916-1 1.482-0.245 0.564-0.369 1.174-0.369 1.813v12.008l-4.373 8e-3v-5.909c0.069-0.144 0.146-0.284 0.209-0.433 0.541-1.268 0.812-2.629 0.812-4.081 0-1.375-0.251-2.664-0.735-3.873 0.187-0.719 0.464-1.406 0.833-2.056 0.74-1.305 1.734-2.378 2.955-3.19 0.733-0.471 1.526-0.842 2.36-1.102 0.837-0.262 1.725-0.394 2.64-0.394s1.804 0.132 2.641 0.394c0.833 0.26 1.627 0.631 2.36 1.102 1.245 0.811 2.246 1.885 2.974 3.191 0.73 1.309 1.1 2.767 1.1 4.335v12.05z" fill="#e65912"/></g><g transform="matrix(1,0,0,-1,393.97,173.37)" clip-path="url(#p)"><path d="m0 0v1.674h-7.604v8.253c0 3.258 1.131 4.711 3.668 4.711 0.421 0 0.872-0.049 1.379-0.151l0.771-0.251-0.051 4.159-0.071 0.113c-0.602 0.08-1.647 0.173-2.612 0.173-3.366 0-7.378-1.504-7.378-8.67v-8.337h-5.677v-3.919h5.677l0.016-6.696h4.278v6.696s6.114 0.066 7.875 0.031c-0.178 0.709-0.271 1.448-0.271 2.214" fill="#e65912"/></g><g transform="matrix(1,0,0,-1,358.62,134.21)" clip-path="url(#a)"><path d="m0 0c1.452 0 2.813-0.271 4.081-0.812 1.268-0.542 2.377-1.288 3.328-2.239 0.951-0.95 1.697-2.06 2.239-3.328 0.541-1.268 0.812-2.628 0.812-4.081s-0.271-2.813-0.812-4.081c-0.542-1.267-1.288-2.377-2.239-3.327-0.951-0.952-2.06-1.698-3.328-2.239-1.268-0.542-2.629-0.812-4.081-0.812-1.453 0-2.813 0.27-4.081 0.812-1.268 0.541-2.377 1.287-3.328 2.239-0.951 0.95-1.697 2.06-2.238 3.327-0.542 1.268-0.813 2.628-0.813 4.081s0.271 2.813 0.813 4.081c0.541 1.268 1.287 2.378 2.238 3.328 0.951 0.951 2.06 1.697 3.328 2.239 1.268 0.541 2.628 0.812 4.081 0.812m0.02-16.839c0.868 0 1.691 0.165 2.468 0.496 0.777 0.33 1.455 0.786 2.034 1.367 0.58 0.58 1.034 1.261 1.363 2.04s0.494 1.605 0.494 2.476c0 0.872-0.165 1.697-0.494 2.477-0.329 0.778-0.783 1.459-1.363 2.04-0.579 0.581-1.257 1.037-2.034 1.367s-1.6 0.495-2.468 0.495c-0.869 0-1.693-0.165-2.469-0.495-0.777-0.33-1.455-0.786-2.034-1.367-0.58-0.581-1.04-1.262-1.383-2.04-0.342-0.78-0.513-1.605-0.513-2.477 0-0.871 0.171-1.697 0.513-2.476 0.343-0.779 0.803-1.46 1.383-2.04 0.579-0.581 1.257-1.037 2.034-1.367 0.776-0.331 1.6-0.496 2.469-0.496" fill="#e65912"/></g><g transform="matrix(1,0,0,-1,347.94,140.59)" clip-path="url(#b)"><path d="m0 0c0.447 1.048 1.043 1.981 1.77 2.812l1.448 3.002h-4.605l-6.54-13.583-5.959 13.583h-4.528l8.127-18.497-7.237-15.015h4.605l4.799 9.984 2.36 4.915 5.119 10.614c0.134 0.755 0.342 1.486 0.641 2.185" fill="#e65912"/></g>
	<g transform="matrix(1,0,0,-1,408.43,161.32)" clip-path="url(#c)"><path d="m0 0v-12.05c0-0.638-0.124-1.248-0.37-1.813-0.246-0.566-0.588-1.064-1.018-1.481-0.431-0.419-0.936-0.756-1.503-1.002-1.129-0.49-2.491-0.49-3.643 1e-3 -0.578 0.246-1.083 0.582-1.5 1-0.418 0.417-0.754 0.916-1 1.482-0.245 0.564-0.369 1.174-0.369 1.813v12.008l-4.373 8e-3v-12.016c0-1.569 0.376-3.028 1.119-4.336 0.74-1.305 1.734-2.378 2.955-3.19 0.733-0.471 1.527-0.842 2.36-1.102 0.837-0.262 1.725-0.394 2.64-0.394s1.804 0.132 2.641 0.394c0.833 0.26 1.627 0.631 2.36 1.102 1.245 0.811 2.246 1.885 2.974 3.191 0.73 1.309 1.1 2.767 1.1 4.335v12.05z" fill="#e65912"/></g>
	<g transform="matrix(1,0,0,-1,444.11,161.39)" clip-path="url(#d)"><path d="m0 0v-12.012c0-0.638-0.124-1.248-0.37-1.813-0.246-0.566-0.588-1.064-1.018-1.481-0.431-0.419-0.936-0.756-1.503-1.002-1.129-0.49-2.491-0.49-3.643 1e-3 -0.578 0.246-1.083 0.582-1.5 1-0.418 0.417-0.754 0.916-1 1.482-0.245 0.564-0.369 1.174-0.369 1.813v12.008l-4.373 8e-3v-12.016c0-1.569 0.377-3.028 1.119-4.336 0.74-1.305 1.734-2.378 2.955-3.19 0.733-0.471 1.527-0.842 2.36-1.102 0.837-0.262 1.725-0.394 2.64-0.394 0.916 0 1.804 0.132 2.641 0.394 0.833 0.26 1.627 0.631 2.36 1.102 1.245 0.811 2.246 1.885 2.974 3.191 0.73 1.309 1.1 2.767 1.1 4.335v12.008z" fill="#e65912"/></g>
	<g transform="matrix(1,0,0,-1,418.41,136.17)" clip-path="url(#e)"><path d="m0 0c1.212-0.8 2.18-1.851 2.902-3.154s1.084-2.728 1.084-4.276v-13.035l-3.986-0.011v13.046c0 0.671-0.129 1.303-0.387 1.896s-0.613 1.116-1.064 1.568c-0.452 0.451-0.974 0.806-1.567 1.064-0.594 0.257-1.226 0.387-1.896 0.387-0.671 0-1.31-0.13-1.916-0.387-0.606-0.258-1.129-0.613-1.567-1.064-0.439-0.452-0.787-0.975-1.045-1.568s-0.387-1.225-0.387-1.896v-11.498l-3.985 0.011v27.504l3.985 0.016v-8.603c0.697 0.464 1.464 0.825 2.303 1.083 0.838 0.258 1.708 0.387 2.612 0.387 0.902 0 1.773-0.129 2.612-0.387 0.838-0.258 1.606-0.619 2.302-1.083" fill="#e65912"/></g>
	<g transform="matrix(1,0,0,-1,402.61,150.76)" clip-path="url(#f)"><path d="m0 0-0.771-0.251c-0.507-0.102-0.958-0.151-1.379-0.151-2.537 0-3.669 1.453-3.669 4.711v8.253h7.869v3.919h-7.869v6.696h-4.277l-0.016-6.696h-5.677v-3.919h5.677v-8.337c0-7.166 4.012-8.67 7.378-8.67 0.965 0 2.01 0.093 2.612 0.173l0.07 0.113z" fill="#e65912"/></g>
	<g transform="matrix(1,0,0,-1,428.46,177.87)" clip-path="url(#g)"><path d="m0 0-0.771-0.251c-0.507-0.102-0.958-0.151-1.379-0.151-2.537 0-3.668 1.453-3.668 4.711v8.253h7.868v3.919h-8.107v6.696h-3.987l-0.015-6.696h-6.052v-3.919h5.999v-8.337c0-7.166 4.012-8.67 7.378-8.67 0.965 0 2.01 0.093 2.612 0.173l0.071 0.113z" fill="#e65912"/></g>
	<path d="m331.46 190.44v2.89h4.285v2.391h-4.285v6.278h-2.691v-13.95h8.371v2.391z" fill="#b2b2b2"/>
	<g transform="matrix(1,0,0,-1,349.39,187.85)" clip-path="url(#i)"><path d="m0 0c4.305 0 7.274-3.209 7.274-7.174 0-3.967-2.969-7.175-7.274-7.175s-7.274 3.208-7.274 7.175c0 3.965 2.969 7.174 7.274 7.174m0-11.957c2.631 0 4.584 2.152 4.584 4.783 0 2.63-1.953 4.782-4.584 4.782s-4.584-2.152-4.584-4.782c0-2.631 1.953-4.783 4.584-4.783" fill="#b2b2b2"/></g>
	<g transform="matrix(1,0,0,-1,364.54,200.77)" clip-path="url(#j)"><path d="m0 0c-1.156 1.037-1.794 2.511-1.794 4.644v8.071h2.691v-8.271c0-1.275 0.339-2.053 0.916-2.591 0.598-0.578 1.435-0.896 2.372-0.896 0.936 0 1.774 0.318 2.372 0.896 0.577 0.538 0.916 1.316 0.916 2.591v8.271h2.691v-8.071c0-2.133-0.638-3.607-1.794-4.644-1.076-0.957-2.611-1.435-4.185-1.435s-3.109 0.478-4.185 1.435" fill="#b2b2b2"/></g>
	<path d="m381.27 188.05h1.893l7.773 9.087v-9.087h2.69v13.95h-1.893l-7.772-9.088v9.088h-2.691z" fill="#b2b2b2"/>
	<g transform="matrix(1,0,0,-1,404.69,188.05)" clip-path="url(#k)"><path d="m0 0c2.212 0 3.667-0.478 4.803-1.315 1.714-1.276 2.77-3.348 2.77-5.66s-1.056-4.384-2.77-5.66c-1.136-0.837-2.591-1.315-4.803-1.315h-4.385v13.95zm3.866-3.946c-0.777 0.977-1.913 1.555-3.567 1.555h-1.993v-9.168h1.993c1.654 0 2.79 0.579 3.567 1.555 0.638 0.797 1.017 1.873 1.017 3.029s-0.379 2.232-1.017 3.029" fill="#b2b2b2"/></g>
	<path d="m416.64 202 5.979-13.95h1.893l5.979 13.95h-2.81l-1.316-3.089h-5.6l-1.315 3.089zm5.142-5.481h3.547l-1.774-4.124z" fill="#b2b2b2"/><path d="m444.54 188.05v2.391h-3.687v11.559h-2.69v-11.559h-3.687v-2.391z" fill="#b2b2b2"/>
	<path d="m451.12 188.05h2.69v13.95h-2.69z" fill="#b2b2b2"/>
	<g transform="matrix(1,0,0,-1,467.75,187.85)" clip-path="url(#h)"><path d="m0 0c4.305 0 7.274-3.209 7.274-7.174 0-3.967-2.969-7.175-7.274-7.175s-7.274 3.208-7.274 7.175c0 3.965 2.969 7.174 7.274 7.174m0-11.957c2.631 0 4.583 2.152 4.583 4.783 0 2.63-1.952 4.782-4.583 4.782s-4.584-2.152-4.584-4.782c0-2.631 1.953-4.783 4.584-4.783" fill="#b2b2b2"/></g>
	<path d="m480.7 188.05h1.893l7.773 9.087v-9.087h2.69v13.95h-1.893l-7.773-9.088v9.088h-2.69z" fill="#b2b2b2"/>
	<g transform="matrix(1,0,0,-1,469.47,160.98)" clip-path="url(#l)"><path d="m0 0c-5.801 0-10.011-4.498-10.011-10.696 0-6.098 4.562-10.697 10.611-10.697 5.098 0 7.741 2.69 8.641 3.847l0.108 0.139-2.93 2.789-0.134-0.149c-1.192-1.325-2.795-2.679-5.642-2.679-3.265 0-5.995 2.486-6.304 5.698h15.48l0.019 0.173c0.044 0.396 0.044 0.71 0.044 0.879 0 6.098-4.249 10.696-9.882 10.696m-5.272-7.93c0.732 2.358 2.918 3.983 5.401 3.983 2.282 0 4.417-1.695 5.064-3.983z" fill="#e65912"/></g>
	<g transform="matrix(1,0,0,-1,460.46,165.33)" clip-path="url(#m)"><path d="m0 0c0.77 1.384 1.999 2.517 3.28 3.359-1.256 0.527-2.473 1.011-3.872 1.011-2.777 0-4.803-1.177-5.91-2.412v1.979h-4.377v-20.749h4.507v13.613c1.138 1.932 3.312 3.278 5.304 3.278 0.317 0.053 0.723-7e-3 1.068-0.079" fill="#e65912"/></g>
	<g transform="matrix(1,0,0,-1,487.72,169.53)" clip-path="url(#n)"><path d="m0 0c-2.075 0.53-3.435 0.966-3.435 2.157 0 1.595 1.778 2.322 3.43 2.322 1.434 0 2.844-0.518 4.188-1.538l0.158-0.12 2.312 3.208-0.142 0.116c-1.849 1.499-4.128 2.259-6.772 2.259-3.665 0-7.611-2.021-7.611-6.46 0-0.085 0.017-0.163 0.021-0.246 0.196-0.586 0.351-1.196 0.454-1.832 0.685-1.432 2.113-2.548 4.261-3.264 0.71-0.237 1.436-0.422 2.138-0.602 2.145-0.549 3.997-1.023 3.997-2.625 0-1.453-1.679-2.322-3.302-2.322-1.957 0-3.965 0.753-5.808 2.177l-0.161 0.124-2.309-3.298 0.141-0.114c2.312-1.867 5.078-2.814 8.222-2.814 3.711 0 7.654 2.219 7.654 6.332 0 4.08-3.758 5.596-7.436 6.54" fill="#e65912"/></g>
</g>
</svg>
