<?xml version="1.0" encoding="utf-8"?>
<svg id="Layer_1" data-name="Layer 1" xmlns="http://www.w3.org/2000/svg" viewBox="0 0 212.6 428.03"><defs><style>.cls-1{fill:#e55912;}.cls-2{fill:#f7ab3d;}.cls-3{fill:#c7b200;}.cls-4{fill:#e52e36;}.cls-5{fill:#7d2248;}</style></defs><polygon class="cls-1" points="106.81 320.62 0 320.62 0 213.8 106.81 320.62"/><polygon class="cls-2" points="106.81 428.03 0 428.03 0 321.22 106.81 428.03"/><polygon class="cls-3" points="212.6 428.03 105.78 428.03 105.78 321.22 212.6 428.03"/><path class="cls-4" d="M212.6,320.73V213.91H105.78A106.81,106.81,0,0,1,212.6,320.73Z"/><path class="cls-1" d="M107,0H0V107A107,107,0,0,1,107,0Z"/><path class="cls-4" d="M212.6,107V0h-107A107,107,0,0,1,212.6,107Z"/><path class="cls-5" d="M212.6,107a107,107,0,0,1-107,107h107Z"/><path class="cls-2" d="M0,107V214H107A107,107,0,0,1,0,107Z"/><circle class="cls-3" cx="106.3" cy="107.5" r="45.39" transform="translate(-44.88 106.65) rotate(-45)"/></svg>