<?xml version="1.0" encoding="UTF-8"?>
<svg enable-background="new 0 0 500 500" version="1.1" viewBox="0 0 500 500" xml:space="preserve" xmlns="http://www.w3.org/2000/svg"><style type="text/css">.st0{fill-rule:evenodd;clip-rule:evenodd;fill:#7B2347;}</style><path class="st0" d="m0 0v500h500v-500h-500zm165.2 388c-18-0.2-36-0.2-54 0-3.3 0-4.5-0.8-4.5-4.3 0.1-60.4 0.1-120.8 0-181.1 0-3.1 0.8-4.2 4.1-4.2 18.3 0.2 36.7 0.2 55 0 3.7 0 4.2 1.3 4.2 4.5-0.1 30.1-0.1 60.2-0.1 90.3 0 30-0.1 59.9 0.1 89.8 0.1 3.8-0.7 5.1-4.8 5zm7.8-239.3c-4.3 16.9-21.8 26.7-42.1 23.4-21.5-3.5-33.4-24.4-25.5-44.7 4.9-12.6 17.6-20.3 33.5-20.3 24.1 0 39.8 19.1 34.1 41.6zm219.2 239.3c-17.8-0.2-35.7-0.2-53.5 0-3.9 0-4.9-1.1-4.9-4.9 0.1-31.8 0.1-63.5 0.1-95.3 0-7.2-0.5-14.4-2.5-21.4-6.5-22.4-32-30.3-50.2-15.4-9.8 8.1-13.6 18.7-13.6 31.2 0.2 30 0 59.9 0 89.9 0 3.9-0.2 7.9 0.1 11.8 0.3 3.4-1.1 4-4.2 4-18.2-0.1-36.3-0.1-54.5 0-3.3 0-4.5-0.6-4.4-4.3 0.3-27 0.4-54 0.4-81 0-33.2-0.1-66.5-0.3-99.7 0-3.6 0.7-4.7 4.5-4.7 18.2 0.2 36.3 0.2 54.5 0 3.3 0 4.2 1 4.1 4.1-0.2 6.8-0.1 13.7-0.1 21.8 1.2-1.3 1.7-1.7 2-2.2 16.6-24.2 40.3-31.3 67.9-27.1 31.9 4.9 52.4 27.3 57.6 61.5 1.2 8.1 1.9 16.3 1.8 24.4 0 34.1-0.1 68.1 0.1 102.2 0 4-1 5.2-4.9 5.1z"/></svg>