<?xml version="1.0" encoding="UTF-8"?>
<svg version="1.1" xmlns="http://www.w3.org/2000/svg" xmlns:xlink="http://www.w3.org/1999/xlink" x="0px" y="0px" viewBox="0 0 500 500" style="enable-background:new 0 0 500 500;" xml:space="preserve"><style type="text/css">.st0{fill:#7B2347;}.st1{fill:#FFFFFF;}</style><rect class="st0" width="500" height="500"/><path class="st1" d="M430.5,138c-13.3,5.9-27.6,9.9-42.5,11.7c15.3-9.2,27-23.7,32.6-41c-14.3,8.5-30.2,14.7-47,18c-13.5-14.4-32.8-23.4-54.1-23.4c-40.9,0-74.1,33.2-74.1,74.1c0,5.8,0.7,11.5,1.9,16.9c-61.6-3.1-116.1-32.6-152.7-77.4c-6.4,10.9-10,23.7-10,37.2c0,25.7,13.1,48.4,33,61.7c-12.1-0.4-23.6-3.7-33.5-9.3c0,0.3,0,0.6,0,0.9c0,35.9,25.5,65.8,59.4,72.6c-6.2,1.7-12.8,2.6-19.5,2.6c-4.8,0-9.4-0.5-13.9-1.3c9.4,29.4,36.8,50.8,69.2,51.4c-25.4,19.9-57.3,31.7-92,31.7c-6,0-11.9-0.4-17.7-1c32.8,21,71.7,33.3,113.5,33.3c136.2,0,210.8-112.9,210.8-210.8c0-3.2-0.1-6.4-0.2-9.6C408,165.9,420.6,152.9,430.5,138z"/></svg>