<?xml version="1.0" encoding="UTF-8"?>
<svg version="1.1" viewBox="0 0 163.98 48.723" xml:space="preserve" xmlns="http://www.w3.org/2000/svg"><g transform="translate(-18.308 -30.529)"><path d="m18.308 54.89v-24.361l11.443 0.10187c11.416 0.10164 11.449 0.10355 14.089 0.80954 8.4334 2.2556 14.367 8.1456 16.851 16.728 0.53193 1.8376 0.61133 2.6961 0.61133 6.6098 0 3.8818-0.08403 4.8055-0.61345 6.7437-2.2722 8.3184-8.5107 14.668-16.344 16.636-3.5687 0.89639-6.5254 1.093-16.446 1.0938l-9.5911 7.4e-4zm22.257 15.53c5.5671-1.2292 9.9772-5.9024 11.193-11.861 1.7648-8.6476-2.6053-16.666-10.432-19.14-1.142-0.36103-2.7508-0.48646-7.4745-0.58271l-6.0193-0.12265v32.414l5.4901-0.16063c3.2259-0.0944 6.2127-0.32018 7.2422-0.54749zm20.583 8.2364c0.17449-0.45345 13.478-32.578 19.119-46.17l0.79623-1.9182h6.9963l8.9603 21.63c4.9281 11.896 9.4699 22.85 10.093 24.342l1.1326 2.712h-9.9533l-4.4458-10.716-18.816-0.1388-4.4672 10.853-9.6442 0.00159 0.22908-0.59532zm29.127-18.704c0-0.28368-5.1877-13.635-5.5483-14.279-0.1984-0.35451-0.27593-0.3167-0.49408 0.24096-0.14232 0.36381-1.4604 3.6191-2.929 7.234-1.4686 3.6149-2.6703 6.6807-2.6703 6.813 0 0.13698 2.5053 0.24049 5.8208 0.24049 3.467 0 5.8208-0.10083 5.8208-0.24934zm26.658-0.87514-0.0678-20.174-12.832-0.1417v-8.1927h35.19v8.2021h-12.965v40.481h-9.2571zm18.056 20.107c0-0.0369 4.5159-10.961 10.035-24.276l10.035-24.208 7.061-0.1464 3.0878 7.4816c1.6983 4.1149 6.2348 15.072 10.081 24.349l6.9934 16.867h-9.9246l-4.4467-10.716-18.828-0.139-4.4373 10.842-4.8286 6e-3c-2.6558 3e-3 -4.8286-0.0241-4.8286-0.061zm29.372-19.181c8e-3 -0.5711-5.6755-14.606-5.8435-14.43-0.25927 0.27244-5.801 13.977-5.801 14.345 0 0.19206 1.8672 0.28276 5.8208 0.28276 3.2014 0 5.8221-0.0893 5.8237-0.19843z" stroke-width=".26458" fill="#b2b2b2"><title>Data</title></path></g></svg>
