<?xml version="1.0" encoding="utf-8"?>
<svg id="Layer_1" data-name="Layer 1" xmlns="http://www.w3.org/2000/svg" xmlns:xlink="http://www.w3.org/1999/xlink" viewBox="0 0 212.6 428.03"><defs><style>.cls-1{fill:none;}.cls-2{fill:#7d2248;}.cls-3{fill:#69c2c9;}.cls-4{fill:#f7ab3d;}.cls-5{fill:#e55912;}.cls-6{fill:#c7b200;}.cls-7{clip-path:url(#clip-path);}</style><clipPath id="clip-path"><polygon class="cls-1" points="0.37 -0.02 212.6 -0.02 212.6 211.74 0.37 -0.02"/></clipPath></defs><path class="cls-2" d="M106.48,214.41H.24V319.92C.24,261.65,47.8,214.41,106.48,214.41Z"/><path class="cls-3" d="M154.85,269h4.41a0,0,0,0,1,0,0V481.52a0,0,0,0,1,0,0H53.75a0,0,0,0,1,0,0V370.14A101.1,101.1,0,0,1,154.85,269Z" transform="translate(481.78 268.78) rotate(90)"/><path class="cls-4" d="M212.6,319.92V214.41H106.36C165,214.41,212.6,261.65,212.6,319.92Z"/><ellipse class="cls-5" cx="105.53" cy="325.76" rx="45.15" ry="44.84"/><polygon class="cls-6" points="212.5 214.43 0.08 214.43 0.08 -0.01 212.5 214.43"/><g class="cls-7"><polygon class="cls-3" points="52.08 -121.22 58.74 -127.79 332.94 149.09 326.28 155.65 52.08 -121.22"/><polygon class="cls-3" points="36.54 -105.9 43.2 -112.47 317.4 164.41 310.74 170.97 36.54 -105.9"/><polygon class="cls-3" points="21 -90.58 27.66 -97.15 301.86 179.73 295.2 186.29 21 -90.58"/><polygon class="cls-3" points="5.46 -75.26 12.12 -81.83 286.32 195.05 279.66 201.62 5.46 -75.26"/><polygon class="cls-3" points="-10.08 -59.94 -3.42 -66.5 270.78 210.37 264.12 216.94 -10.08 -59.94"/><polygon class="cls-3" points="-25.62 -44.62 -18.96 -51.18 255.24 225.69 248.58 232.26 -25.62 -44.62"/></g></svg>