<?xml version="1.0" encoding="UTF-8" standalone="no"?>
<!-- Created with Inkscape (http://www.inkscape.org/) -->

<svg
   width="163.97531mm"
   height="48.722954mm"
   viewBox="0 0 163.97531 48.722954"
   version="1.1"
   id="svg5"
   xml:space="preserve"
   xmlns="http://www.w3.org/2000/svg"
   xmlns:svg="http://www.w3.org/2000/svg"><defs
     id="defs2" /><g
     id="layer1"
     transform="translate(-18.308271,-30.528524)"><path
       style="fill:#000000;stroke-width:0.264583"
       d="m 18.308271,54.889974 v -24.36145 l 11.443229,0.10187 c 11.416199,0.10164 11.449478,0.10355 14.089061,0.80954 8.433369,2.2556 14.366862,8.14563 16.851167,16.72774 0.531929,1.83757 0.611333,2.69609 0.611333,6.60979 0,3.88178 -0.08403,4.80554 -0.613453,6.7437 -2.272241,8.31842 -8.510661,14.66807 -16.344293,16.6357 -3.568737,0.89639 -6.525448,1.093042 -16.445898,1.093812 l -9.591146,7.4e-4 z m 22.257278,15.52969 c 5.567066,-1.2292 9.977212,-5.90236 11.193195,-11.86074 1.764787,-8.64756 -2.605302,-16.66575 -10.431724,-19.14 -1.141981,-0.36103 -2.750831,-0.48646 -7.474479,-0.58271 l -6.01927,-0.12265 v 16.20711 16.20711 l 5.490104,-0.16063 c 3.225853,-0.0944 6.212699,-0.32018 7.242174,-0.54749 z m 20.582815,8.23644 c 0.174493,-0.45345 13.477555,-32.57803 19.119305,-46.16979 l 0.796232,-1.91823 h 3.498167 3.498167 l 8.960268,21.62969 c 4.928147,11.89633 9.469937,22.85008 10.092857,24.34166 l 1.1326,2.711982 h -4.97666 -4.976657 l -2.222915,-5.357812 -2.222918,-5.35781 -9.40807,-0.0694 -9.408069,-0.0694 -2.233597,5.42644 -2.233597,5.426452 -4.822097,7.9e-4 -4.822097,8e-4 0.229081,-0.595322 z m 29.126571,-18.70403 c 0,-0.28368 -5.187722,-13.63482 -5.548296,-14.27912 -0.198401,-0.35451 -0.275932,-0.3167 -0.494083,0.24096 -0.142317,0.36381 -1.460379,3.6191 -2.929022,7.23399 -1.468647,3.61488 -2.670265,6.68074 -2.670265,6.81302 0,0.13698 2.505313,0.24049 5.820833,0.24049 3.46696,0 5.820833,-0.10083 5.820833,-0.24934 z m 26.658425,-0.87514 -0.0678,-20.17448 -6.41615,-0.0709 -6.41614,-0.0708 v -4.09633 -4.09634 h 17.59479 17.59479 v 4.10104 4.10104 h -6.4823 -6.48229 v 20.24063 20.240622 h -4.62855 -4.62856 z m 18.05615,20.107412 c 0,-0.0369 4.51592,-10.960872 10.03538,-24.275522 l 10.03538,-24.20845 3.53048,-0.0732 3.53049,-0.0732 3.08775,7.48155 c 1.69826,4.11486 6.23479,15.07179 10.08117,24.34875 l 6.99342,16.867182 h -4.96232 -4.96232 l -2.22333,-5.357812 -2.22333,-5.35781 -9.41408,-0.0695 -9.41408,-0.0695 -2.21866,5.42114 -2.21866,5.421152 -4.82864,0.006 c -2.65576,0.003 -4.82865,-0.0241 -4.82865,-0.061 z m 29.37161,-19.181362 c 0.008,-0.5711 -5.67547,-14.60617 -5.8435,-14.42962 -0.25927,0.27244 -5.80102,13.97658 -5.80102,14.34529 0,0.19206 1.86722,0.28276 5.82083,0.28276 3.20145,0 5.82212,-0.0893 5.82369,-0.19843 z"
       id="path248" /></g></svg>
